<?xml version="1.0" encoding="UTF-8"?>
<svg xmlns="http://www.w3.org/2000/svg" xmlns:xlink="http://www.w3.org/1999/xlink" width="1303" height="1303" viewBox="0 0 1303 1303">
  <defs>
    <path id="a" d="M1302.83 651.46c0-359.8-291.66-651.46-651.41-651.46C291.66 0 0 291.66 0 651.46c0 325.1 238.36 594.93 550.3 644.25V838.33H384.66V651.46H550.3V507.93c0-163.17 97.27-253.38 246.09-253.38 71.28 0 145.9 12.73 145.9 12.73v160.46H860.8c-80.85 0-106.04 50.18-106.04 101.66v122.06h180.48l-28.88 186.87H754.76v457.38c311.94-49.32 548.07-319.15 548.07-644.25"/>
  </defs>
  <g fill="none" fill-rule="evenodd">
    <mask id="b" fill="#fff">
      <use xlink:href="#a"/>
    </mask>
    <path fill="#1877F2" d="M0 0H1302.83V1303H0z" mask="url(#b)"/>
    <path fill="#FFF" d="M906.36 838.33l28.88-186.87H754.76V529.4c0-51.48 25.2-101.66 106.04-101.66h82.49V267.28s-74.62-12.73-145.9-12.73c-148.82 0-246.09 90.21-246.09 253.38v143.53H384.66v186.87H550.3v457.38c33.13 5.2 67.12 7.9 101.12 7.9 34 0 67.99-2.7 101.12-7.9V838.33h153.82"/>
  </g>
</svg>
